<svg xmlns="http://www.w3.org/2000/svg" viewBox="0 0 1440 600" preserveAspectRatio="none">
  <defs>
    <linearGradient id="g" x1="0" x2="1" y1="0" y2="1">
      <stop offset="0%" stop-color="#e6f0ff"/>
      <stop offset="50%" stop-color="#cfe0ff"/>
      <stop offset="100%" stop-color="#b6d0ff"/>
    </linearGradient>
  </defs>
  <rect width="1440" height="600" fill="url(#g)"/>
  <path d="M0,420 C240,300 480,520 720,420 C960,320 1200,500 1440,420 L1440,600 L0,600 Z" fill="#ffffff" opacity="0.7"/>
  <path d="M0,470 C240,350 480,570 720,470 C960,370 1200,550 1440,470 L1440,600 L0,600 Z" fill="#ffffff" opacity="0.5"/>
  <path d="M0,520 C240,400 480,620 720,520 C960,420 1200,600 1440,520 L1440,600 L0,600 Z" fill="#ffffff" opacity="0.35"/>
</svg>

